<?xml version="1.0" encoding="UTF-8" standalone="no"?>
<!-- Created with Inkscape (http://www.inkscape.org/) -->

<svg
   xmlns:dc="http://purl.org/dc/elements/1.1/"
   xmlns:cc="http://creativecommons.org/ns#"
   xmlns:rdf="http://www.w3.org/1999/02/22-rdf-syntax-ns#"
   xmlns:svg="http://www.w3.org/2000/svg"
   xmlns="http://www.w3.org/2000/svg"
   xmlns:sodipodi="http://sodipodi.sourceforge.net/DTD/sodipodi-0.dtd"
   xmlns:inkscape="http://www.inkscape.org/namespaces/inkscape"
   width="128"
   height="128"
   viewBox="0 0 33.866666 33.866668"
   version="1.1"
   id="svg8"
   inkscape:version="0.92.1 r15371"
   sodipodi:docname="blood.svg"
   inkscape:export-filename="D:\code\old-42-game\android\assets\blood.png"
   inkscape:export-xdpi="96.000008"
   inkscape:export-ydpi="96.000008">
  <defs
     id="defs2" />
  <sodipodi:namedview
     id="base"
     pagecolor="#ffffff"
     bordercolor="#666666"
     borderopacity="1.0"
     inkscape:pageopacity="0.0"
     inkscape:pageshadow="2"
     inkscape:zoom="5.6"
     inkscape:cx="86.60405"
     inkscape:cy="62.61285"
     inkscape:document-units="mm"
     inkscape:current-layer="layer1"
     showgrid="false"
     units="px"
     inkscape:window-width="1920"
     inkscape:window-height="1001"
     inkscape:window-x="-9"
     inkscape:window-y="-9"
     inkscape:window-maximized="1" />
  <metadata
     id="metadata5">
    <rdf:RDF>
      <cc:Work
         rdf:about="">
        <dc:format>image/svg+xml</dc:format>
        <dc:type
           rdf:resource="http://purl.org/dc/dcmitype/StillImage" />
        <dc:title></dc:title>
      </cc:Work>
    </rdf:RDF>
  </metadata>
  <g
     inkscape:label="Layer 1"
     inkscape:groupmode="layer"
     id="layer1"
     transform="translate(0,-263.13332)">
    <path
       style="fill:#ffffff;stroke:#ffffff;stroke-width:0.26458332px;stroke-linecap:butt;stroke-linejoin:miter;stroke-opacity:1;fill-opacity:0.98507464"
       d="m 3.1655506,279.42409 c -0.00799,-0.22012 0.019963,-0.44187 0,-0.66145 -0.017346,-0.19081 -0.07073,-0.37685 -0.094494,-0.56697 -0.047045,-0.37636 -0.045437,-0.75783 -0.094494,-1.13393 -0.022773,-0.1746 -0.065547,-0.34603 -0.094494,-0.51971 -0.056956,-0.34174 -0.048344,-0.38675 -0.094494,-0.75596 -0.013814,-0.1105 -0.033434,-0.22022 -0.047247,-0.33073 -0.01769,-0.14151 -0.020966,-0.28505 -0.047247,-0.42522 -0.02113,-0.11269 -0.075645,-0.21763 -0.094494,-0.33073 -0.012945,-0.0777 0,-0.15749 0,-0.23623 0,-0.0788 0,-0.15749 0,-0.23624 0,-0.15749 0,-0.31498 0,-0.47247 0,-0.0473 0,-0.0945 0,-0.14174 0,-0.0157 -0.00498,-0.0323 0,-0.0473 0.011136,-0.0334 0.040341,-0.06 0.047247,-0.0945 0.00927,-0.0463 -0.00927,-0.0954 0,-0.14174 0.024469,-0.12235 0.043051,-0.0646 0.094494,-0.14174 0.019534,-0.0293 0.034168,-0.0618 0.047247,-0.0945 0.018497,-0.0462 0.035168,-0.0934 0.047247,-0.14174 0.00382,-0.0153 -0.00704,-0.0332 0,-0.0473 0.050789,-0.10157 0.1442516,-0.17909 0.1889879,-0.28348 0.02558,-0.0597 0.024447,-0.12819 0.047247,-0.18899 0.024731,-0.0659 0.062996,-0.12599 0.094494,-0.18898 0.031498,-0.063 0.052235,-0.13265 0.094494,-0.18899 0.053454,-0.0713 0.1447872,-0.11164 0.1889879,-0.18899 0.023442,-0.041 -0.01298,-0.0963 0,-0.14174 0.052013,-0.18204 0.2013971,-0.3083 0.2834823,-0.47247 0.022273,-0.0446 0.012031,-0.10653 0.047247,-0.14174 0.035216,-0.0352 0.099036,-0.0216 0.1417412,-0.0472 0.038197,-0.0229 0.05971,-0.0667 0.094494,-0.0945 0.044341,-0.0355 0.098628,-0.0575 0.1417412,-0.0945 0.4549283,-0.45493 -0.029052,0.004 0.3307292,-0.28348 0.034784,-0.0278 0.05743,-0.0698 0.094494,-0.0945 0.058603,-0.0391 0.127836,-0.0596 0.1889879,-0.0945 0.153484,-0.0877 0.15319,-0.10594 0.2834822,-0.23623 0.031498,-0.0315 0.053135,-0.0779 0.094494,-0.0945 0.043868,-0.0175 0.099482,0.0211 0.141741,0 0.031498,-0.0158 0.026117,-0.0663 0.047247,-0.0945 0.026727,-0.0356 0.062996,-0.063 0.094494,-0.0945 0.031498,-0.0315 0.054652,-0.0746 0.094494,-0.0945 0.058079,-0.029 0.1286975,-0.0231 0.1889881,-0.0473 0.02068,-0.008 0.026117,-0.0402 0.047247,-0.0472 0.029882,-0.01 0.063608,0.006 0.094494,0 0.048836,-0.01 0.093855,-0.0336 0.141741,-0.0473 0.062437,-0.0178 0.1293038,-0.0217 0.1889882,-0.0473 0.052193,-0.0224 0.09305,-0.0653 0.141741,-0.0945 0.030197,-0.0181 0.062996,-0.0315 0.094494,-0.0473 0.062996,-0.0315 0.123041,-0.0698 0.1889881,-0.0945 0.060801,-0.0228 0.1259923,-0.0315 0.1889882,-0.0473 0.4609018,-0.11522 -0.114613,0.0255 0.4252233,-0.0945 0.1267769,-0.0282 0.2494116,-0.0761 0.377976,-0.0945 0.046772,-0.007 0.094494,0 0.141741,0 0.1102432,0 0.2204863,0 0.3307292,0 0.047247,0 0.094969,0.007 0.1417413,0 0.064282,-0.009 0.1249367,-0.0366 0.1889879,-0.0472 0.031069,-0.005 0.062996,0 0.094494,0 0.062996,0 0.1262507,0.006 0.1889882,0 0.1109049,-0.0101 0.2197515,-0.038 0.3307292,-0.0473 0.078473,-0.007 0.15749,0 0.2362351,0 0.2047372,0 0.4094741,0 0.6142114,0 0.078745,0 0.1574904,0 0.2362354,0 0.09449,0 0.189566,-0.0104 0.283482,0 0.0012,1.3e-4 0.277844,0.0929 0.283482,0.0945 0.124873,0.0357 0.253104,0.0588 0.377976,0.0945 0.124408,0.0355 0.486845,0.17634 0.519718,0.18898 0.07916,0.0305 0.158734,0.06 0.236235,0.0945 0.06436,0.0286 0.124251,0.0667 0.188988,0.0945 0.04578,0.0196 0.09511,0.0298 0.141741,0.0473 0.07941,0.0298 0.156824,0.0647 0.236235,0.0945 0.04663,0.0175 0.0972,0.025 0.141741,0.0473 0.05079,0.0254 0.08955,0.0721 0.141741,0.0945 0.335613,0.14384 0.06775,0.004 0.283483,0.0472 0.04884,0.01 0.09385,0.0336 0.141741,0.0473 0.415281,0.11865 -0.0091,-0.0188 0.330729,0.0945 0.04725,0.0157 0.09449,0.0315 0.141741,0.0472 0.04725,0.0158 0.09244,0.0402 0.141741,0.0473 0.06236,0.009 0.126377,-0.007 0.188988,0 0.07981,0.009 0.156422,0.0384 0.236235,0.0472 0.06261,0.007 0.125992,0 0.188988,0 0.141741,0 0.283482,0 0.425223,0 0.377976,0 0.755953,0 1.133929,0 0.07874,0 0.15749,0 0.236235,0 0.04725,0 0.09497,0.007 0.141741,0 0.163775,-0.0234 0.314836,-0.0967 0.47247,-0.14174 0.063,-0.0158 0.125992,-0.0315 0.188988,-0.0472 0.0315,0 0.06361,0.006 0.09449,0 0.04884,-0.01 0.09449,-0.0315 0.141742,-0.0472 0.04725,-0.0158 0.09596,-0.0276 0.141741,-0.0473 0.104462,-0.0448 0.239479,-0.11599 0.330729,-0.18899 0.03478,-0.0278 0.05743,-0.0698 0.09449,-0.0945 0.3542,-0.23613 0.016,0.0566 0.425223,-0.18899 0.08647,-0.0519 0.149763,-0.1371 0.236235,-0.18899 0.07272,-0.0436 0.155776,-0.0677 0.236235,-0.0945 0.03106,-0.0104 0.424579,-0.12444 0.519718,-0.14174 0.109566,-0.0199 0.221529,-0.0254 0.330729,-0.0472 0.04884,-0.01 0.09449,-0.0315 0.141741,-0.0473 0.09449,-0.0315 0.188077,-0.0659 0.283482,-0.0945 0.0622,-0.0187 0.126551,-0.0294 0.188988,-0.0472 0.04789,-0.0137 0.09342,-0.0352 0.141741,-0.0472 0.07791,-0.0195 0.157843,-0.0298 0.236235,-0.0472 0.06339,-0.0141 0.1256,-0.0332 0.188988,-0.0473 0.07839,-0.0174 0.157843,-0.0298 0.236235,-0.0472 0.06339,-0.0141 0.12432,-0.0414 0.188988,-0.0473 0.109791,-0.01 0.220487,0 0.330729,0 0.220487,0 0.440973,0 0.661459,0 0.110243,0 0.220486,0 0.330729,0 0.04725,0 0.09497,-0.007 0.141741,0 0.128564,0.0184 0.249874,0.0731 0.377976,0.0945 0.144114,0.024 0.0649,-0.0479 0.236235,0.0473 0.09928,0.0551 0.187177,0.1288 0.283483,0.18899 0.08959,0.056 0.191754,0.0893 0.283482,0.14174 0.0986,0.0563 0.191068,0.12298 0.283482,0.18899 0.410227,0.29302 -0.0033,0.0135 0.330729,0.23623 0.04725,0.0315 0.08955,0.0721 0.141741,0.0945 0.05968,0.0256 0.133307,0.0138 0.188988,0.0472 0.0302,0.0181 0.02525,0.067 0.04725,0.0945 0.04174,0.0522 0.08615,0.10467 0.141741,0.14174 0.05517,0.0368 0.286626,0.0756 0.33073,0.0945 0.201441,0.0863 0.08383,0.0801 0.236235,0.18899 0.206782,0.1477 0.223008,0.12389 0.425223,0.23624 0.08028,0.0446 0.15596,0.0971 0.236235,0.14174 0.153921,0.0855 0.31498,0.15749 0.472469,0.23623 0.063,0.0315 0.121529,0.0743 0.18899,0.0945 0.09176,0.0275 0.18923,0.0301 0.283482,0.0472 0.142843,0.026 0.380492,0.0818 0.519716,0.0945 0.07842,0.007 0.15749,0 0.236236,0 0.01574,0 0.0318,-0.003 0.04725,0 0.06367,0.0127 0.125992,0.0315 0.18899,0.0472 0.09449,0.0315 0.185808,0.075 0.283482,0.0945 0.06177,0.0124 0.130003,-0.0221 0.188987,0 0.07373,0.0277 0.118557,0.10652 0.188989,0.14174 0.02817,0.0141 0.06361,-0.006 0.09449,0 0.04884,0.01 0.09386,0.0336 0.14174,0.0473 0.120991,0.0346 0.186314,0.0297 0.283483,0.0945 0.03706,0.0247 0.05465,0.0746 0.0945,0.0945 0.06517,0.0326 0.04226,-0.0572 0.09449,0.0473 0.02228,0.0446 0.02498,0.0972 0.04725,0.14174 0.0099,0.0199 0.03489,0.0287 0.04725,0.0472 0.01953,0.0293 0.0315,0.063 0.04725,0.0945 0.01574,0.0315 0.03417,0.0618 0.04725,0.0945 0.0185,0.0462 0.02498,0.0972 0.04725,0.14174 0.0099,0.0199 0.03489,0.0287 0.04725,0.0472 0.01953,0.0293 0.02236,0.0696 0.04725,0.0945 0.04015,0.0402 0.101589,0.0543 0.14174,0.0945 0.0249,0.0249 0.0315,0.063 0.04725,0.0945 0.0315,0.063 0.05826,0.12859 0.0945,0.18899 0.01146,0.0191 0.03729,0.0273 0.04725,0.0472 0.02228,0.0446 0.02763,0.096 0.04725,0.14174 0.02774,0.0647 0.06675,0.12425 0.09449,0.18899 0.01963,0.0458 0.02498,0.0972 0.04725,0.14174 0.0254,0.0508 0.0691,0.091 0.0945,0.14174 0.04454,0.0891 0.04995,0.1944 0.09449,0.28349 0.237249,0.47449 -0.05951,-0.2491 0.188989,0.33072 0.01961,0.0458 0.01963,0.10031 0.04725,0.14175 0.03706,0.0556 0.104677,0.0861 0.14174,0.14174 0.02763,0.0414 0.02875,0.0955 0.04725,0.14174 0.03863,0.0966 0.09521,0.19042 0.141743,0.28348 0.0315,0.063 0.05542,0.13039 0.09449,0.18899 0.164127,0.24619 0.06189,-0.12257 0.236236,0.33073 0.139179,0.36186 0.118531,0.75815 0.188987,1.13393 0.02676,0.14271 0.06407,0.28324 0.0945,0.42522 0.01683,0.0785 0.02611,0.15876 0.04725,0.23623 0.02622,0.0961 0.06587,0.18808 0.09449,0.28349 0.04938,0.1646 0.05596,0.25181 0.09449,0.42522 0.01408,0.0634 0.04137,0.12432 0.04725,0.18899 0.01,0.10979 0,0.22048 0,0.33073 0,0.20473 0,0.40947 0,0.61421 0,0.38891 0.01812,0.25467 -0.04725,0.61421 -0.01437,0.079 -0.01905,0.16104 -0.04725,0.23623 -0.01995,0.0532 -0.06528,0.0931 -0.09449,0.14175 -0.01812,0.0302 -0.02611,0.0663 -0.04725,0.0945 -0.02673,0.0356 -0.063,0.063 -0.0945,0.0945 -0.0315,0.0315 -0.06776,0.0589 -0.09449,0.0945 -0.02114,0.0282 -0.01667,0.077 -0.04725,0.0945 -0.08648,0.0494 -0.189872,0.0605 -0.283482,0.0945 -0.0797,0.029 -0.156258,0.0663 -0.236236,0.0945 -0.614336,0.21682 -0.553024,0.20844 -1.228421,0.28348 -0.04443,0.005 -1.110432,0.0827 -1.181176,0.0945 -0.192154,0.032 -0.3756,0.10529 -0.566965,0.14174 -0.140095,0.0267 -0.286867,0.0127 -0.425223,0.0472 -0.116358,0.0291 -0.218781,0.0987 -0.330729,0.14175 -0.09297,0.0358 -0.194392,0.0499 -0.283483,0.0945 -0.03984,0.0199 -0.05971,0.0667 -0.09449,0.0945 -0.04434,0.0355 -0.09244,0.0663 -0.14174,0.0945 -0.06115,0.0349 -0.124251,0.0668 -0.188989,0.0945 -0.04578,0.0196 -0.102852,0.0161 -0.141741,0.0473 -0.04434,0.0355 -0.05087,0.10539 -0.09449,0.14174 -0.39655,0.33046 0.001,-0.15082 -0.330729,0.23623 -0.05125,0.0598 -0.0905,0.12921 -0.141741,0.18899 -0.08697,0.10147 -0.205809,0.17474 -0.283482,0.28348 -0.228492,0.45699 0.02746,-0.005 -0.188989,0.28349 -0.02113,0.0282 -0.02235,0.0696 -0.04725,0.0945 -0.04015,0.0401 -0.101588,0.0543 -0.141741,0.0945 -0.0498,0.0498 -0.05223,0.13264 -0.09449,0.18898 -0.131836,0.17579 -0.07337,0.005 -0.188988,0.23624 -0.03793,0.0759 -0.05331,0.1621 -0.09449,0.23623 -0.03824,0.0688 -0.111454,0.1163 -0.141741,0.18899 -0.0735,0.1764 -0.09405,0.42345 -0.141741,0.61421 -0.09214,0.36857 -0.07812,0.23343 -0.141741,0.51972 -0.01742,0.0784 -0.02777,0.15833 -0.04725,0.23624 -0.01208,0.0483 -0.0402,0.0924 -0.04725,0.14174 -0.0018,0.0126 0.0018,0.37064 0,0.37797 -0.01708,0.0683 -0.07922,0.12024 -0.09449,0.18899 -7.94e-4,0.004 7.67e-4,0.46162 0,0.47247 -0.01016,0.14225 -0.03776,0.28293 -0.04725,0.42522 -0.0063,0.0943 0.0072,0.18927 0,0.28349 -0.0085,0.11103 -0.03617,0.21992 -0.04725,0.33073 -0.0055,0.0551 0.0074,0.29398 0,0.33072 -0.0044,0.0218 -0.03729,0.0273 -0.04725,0.0473 -0.01409,0.0282 0.01409,0.0663 0,0.0945 -0.01,0.0199 -0.03729,0.0273 -0.04725,0.0472 -0.0189,0.0378 0.0189,0.10395 0,0.14174 -0.007,0.0141 -0.0315,0 -0.04725,0 -0.0764,0 -0.09759,0.005 -0.188988,-0.0472 -0.06837,-0.0391 -0.125992,-0.0945 -0.188988,-0.14174 -0.17324,-0.0788 -0.351004,-0.14821 -0.519718,-0.23624 -0.193977,-0.10121 -0.381978,-0.2139 -0.566964,-0.33073 -0.377833,-0.23863 -0.353309,-0.308 -0.803199,-0.51972 -0.103742,-0.0488 -0.222978,-0.0553 -0.33073,-0.0945 -0.06619,-0.0241 -0.124251,-0.0668 -0.188988,-0.0945 -0.04578,-0.0196 -0.0955,-0.0288 -0.141741,-0.0473 -0.06539,-0.0262 -0.122171,-0.0722 -0.188988,-0.0945 -0.02966,-0.01 -0.150952,0 -0.188988,0 -0.07874,0 -0.15749,0 -0.236235,0 -0.01575,0 -0.0315,0 -0.04725,0 -0.01575,0 -0.03316,-0.007 -0.04725,0 -0.01992,0.01 -0.02943,0.0339 -0.04725,0.0472 -0.04543,0.0341 -0.108736,0.0483 -0.141741,0.0945 -0.04539,0.0635 -0.168791,0.4672 -0.188988,0.51971 -0.04306,0.11195 -0.110183,0.21502 -0.141741,0.33073 -0.01658,0.0608 0.0181,0.12865 0,0.18899 -0.03036,0.10119 -0.09802,0.1873 -0.141741,0.28348 -0.07008,0.15417 -0.208444,0.54474 -0.236236,0.66146 -0.316099,1.32762 0.162834,-0.25383 -0.236235,1.22842 -0.413084,1.23926 -0.05523,0.053 -0.236235,0.8977 -0.02402,0.11211 -0.06433,0.22011 -0.09449,0.33073 -0.06752,0.24757 -0.02691,0.20234 -0.188988,0.47247 -0.04051,0.0675 -0.100006,0.12221 -0.141741,0.18898 -0.206416,0.33027 0.02306,0.0484 -0.188988,0.47248 -0.01992,0.0398 -0.06978,0.0574 -0.09449,0.0945 -0.228492,0.45698 0.02746,-0.005 -0.188988,0.28348 -0.02113,0.0282 -0.03611,0.0611 -0.04725,0.0945 -0.005,0.0149 0.01114,0.0361 0,0.0473 -0.01114,0.0111 -0.03316,-0.007 -0.04725,0 -0.01992,0.01 -0.0315,0.0315 -0.04725,0.0473 -0.01575,0.0157 -0.03489,0.0287 -0.04725,0.0472 -0.113018,0.16952 0.04575,0.0406 -0.188988,0.23623 -0.08725,0.0727 -0.203178,0.10869 -0.283482,0.18899 -0.04015,0.0401 -0.05087,0.10539 -0.0945,0.14174 -0.0405,0.0337 -0.215986,0.10125 -0.283482,0.14174 -0.04869,0.0292 -0.09095,0.0691 -0.141741,0.0945 -0.04454,0.0223 -0.09904,0.0216 -0.141741,0.0472 -0.143039,-0.11658 -0.08127,0.12852 -0.09449,0.14174 -0.01114,0.0111 -0.03316,-0.007 -0.04725,0 -0.03984,0.0199 -0.05223,0.0804 -0.09449,0.0945 -0.02988,0.01 -0.06324,-0.004 -0.09449,0 -0.730096,0.0913 0.322431,0.0472 -1.086682,0.0472 -2.482399,0 -0.08446,-0.0231 -1.984374,0.0472 -0.157383,0.006 -0.315381,-0.0112 -0.472471,0 -0.06477,0.005 -0.124706,0.0381 -0.188988,0.0473 -0.07795,0.0111 -0.15749,0 -0.236235,0 -0.09449,0 -0.188988,0 -0.283482,0 -0.03105,0 -0.115084,-0.009 -0.141741,0 -0.03341,0.0111 -0.06033,0.0387 -0.09449,0.0472 -0.286132,0.0715 -0.816038,0.15209 -1.086682,0.18899 -0.141305,0.0193 -0.284268,0.0256 -0.425223,0.0473 -0.5088455,0.0783 0.08088,0.0122 -0.3307294,0.0945 -0.030886,0.006 -0.063937,-0.008 -0.094494,0 -0.034165,0.009 -0.061085,0.0361 -0.094494,0.0472 -0.027882,0.009 -0.2098371,0 -0.2362351,0 -0.098233,0 -0.2002068,0.0194 -0.2834823,-0.0472 -0.2870782,-0.22966 -0.048384,-0.0488 -0.1889881,-0.23623 -0.026727,-0.0356 -0.067767,-0.0589 -0.094494,-0.0945 -0.042259,-0.0563 -0.044692,-0.13918 -0.094494,-0.18898 -0.011136,-0.0111 -0.040204,0.0141 -0.047247,0 -0.014086,-0.0282 0.017473,-0.0683 0,-0.0945 -0.057715,-0.0866 -0.1054526,-0.004 -0.141741,-0.0945 -0.039391,-0.0985 -0.068315,-0.3336 -0.094494,-0.42522 -0.00968,-0.0339 -0.036111,-0.0611 -0.047247,-0.0945 -0.00498,-0.0149 0,-0.0315 0,-0.0472 0,-0.0315 0.00518,-0.0634 0,-0.0945 -0.010676,-0.0641 -0.036572,-0.12494 -0.047247,-0.18899 -0.00518,-0.0311 0.00764,-0.0639 0,-0.0945 -0.00854,-0.0342 -0.034168,-0.0618 -0.047247,-0.0945 -0.018497,-0.0462 -0.024974,-0.0972 -0.047247,-0.14174 -0.025395,-0.0508 -0.069099,-0.091 -0.094494,-0.14174 -0.00704,-0.0141 0.00498,-0.0323 0,-0.0472 -0.1088784,-0.32664 0.012607,0.25519 -0.047247,-0.28349 -0.00887,-0.0798 -0.039256,-0.15633 -0.047247,-0.23623 -0.012536,-0.12537 0,-0.25199 0,-0.37798 0,-0.20474 0,-0.40947 0,-0.61421 0,-0.063 0,-0.12599 0,-0.18899 0,-0.0315 0.00996,-0.0646 0,-0.0945 -0.097756,-0.29327 0.00382,0.15702 -0.094494,-0.23624 -0.014856,-0.0594 0.012046,-0.12876 0,-0.18899 -0.012734,-0.0637 -0.029408,-0.12655 -0.047247,-0.18898 -0.013682,-0.0479 -0.03748,-0.0929 -0.047247,-0.14174 -0.00618,-0.0309 0.00996,-0.0646 0,-0.0945 -0.00704,-0.0211 -0.037286,-0.0273 -0.047247,-0.0472 -0.047247,-0.0945 0.094494,0 0,-0.14175 -0.019534,-0.0293 -0.069592,-0.0223 -0.094494,-0.0472 -0.022273,-0.0223 0.022273,-0.0722 0,-0.0945 -0.011136,-0.0111 -0.031498,0 -0.047247,0 -0.015749,-0.0158 -0.035443,-0.0284 -0.047247,-0.0472 -0.2156743,-0.34508 -0.1961459,-0.40427 -0.4724704,-0.75596 -0.1836843,-0.23378 -0.4428784,-0.37267 -0.6614583,-0.56696 -0.066586,-0.0592 -0.112594,-0.14315 -0.1889879,-0.18899 -0.173332,-0.0578 -0.3195275,-0.0917 -0.4724705,-0.18899 -0.1142976,-0.0727 -0.2137058,-0.16797 -0.3307291,-0.23623 -0.1465157,-0.0855 -0.3207557,-0.11313 -0.4724702,-0.18899 -0.2499587,-0.12498 -0.039668,-0.0621 -0.283482,-0.23623 -0.057313,-0.0409 -0.1303856,-0.0554 -0.1889881,-0.0945 -0.071637,-0.0478 -0.1501061,-0.16819 -0.1889882,-0.23623 -0.034944,-0.0612 -0.055426,-0.13039 -0.094494,-0.18899 -0.1826284,-0.27395 -0.022726,-0.035 -0.141741,-0.0945 -0.048147,-0.0241 -0.1285462,-0.1428 -0.141741,-0.18898 -0.2280565,-0.7982 0.084223,0.15817 -0.094494,-0.37798 -0.015748,-0.0473 -0.017365,-0.1019 -0.047247,-0.14174 -0.02113,-0.0282 -0.069593,-0.0224 -0.094494,-0.0473 -2.317e-4,-2.3e-4 3.705e-4,-0.13992 0,-0.14174 -0.00977,-0.0488 -0.03748,-0.0929 -0.047247,-0.14174 -0.00618,-0.0309 0,-0.063 0,-0.0945 0,-0.0814 0.00995,-0.2611 0,-0.33073 -0.024995,-0.17498 -0.0979,-0.29711 -0.141741,-0.47247 -0.010708,-0.0428 0,-0.18135 0,-0.23624 0,-0.22049 0,-0.44097 0,-0.66146 0,-0.28348 0,-0.56696 0,-0.85044 0,-0.1169 0.010366,-0.26394 0,-0.37798 -0.021577,-0.23735 -0.072917,-0.47136 -0.094494,-0.70871 0,-0.57863 0.019921,0.13945 -0.047247,-0.33072 -0.00891,-0.0624 0.010356,-0.12685 0,-0.18899 -0.00579,-0.0347 -0.036111,-0.0611 -0.047247,-0.0945 -0.00888,-0.0267 0,-0.11069 0,-0.14174 0,-0.0787 0,-0.15749 0,-0.23623 0,-0.0158 0,-0.0315 0,-0.0473 0,-0.0158 0.011136,-0.0361 0,-0.0473 -0.0249,-0.0249 -0.069593,-0.0223 -0.094494,-0.0472 -0.01697,-0.017 0.015282,-0.15843 0,-0.18899 -0.00704,-0.0141 -0.036111,0.0111 -0.047247,0 -0.00966,-0.01 0.00937,-0.12301 0,-0.14174 -0.019921,-0.0399 -0.080408,-0.0522 -0.094494,-0.0945 -0.00996,-0.0299 0,-0.063 0,-0.0945 0,-0.12599 0.00945,-0.0346 -0.141741,-0.23624 z"
       id="path4495"
       inkscape:connector-curvature="0" />
    <path
       style="fill:#ffffff;stroke:#ffffff;stroke-width:0.26458332px;stroke-linecap:butt;stroke-linejoin:miter;stroke-opacity:1;fill-opacity:0.98507464"
       d="m 26.174851,284.0543 c -0.174383,0.16586 -0.187969,0.43066 -0.330729,0.61421 -0.04834,0.0622 -0.133307,0.0861 -0.188988,0.14174 -0.221915,0.22192 -0.05205,0.15073 -0.283483,0.33073 -0.08964,0.0697 -0.1948,0.11805 -0.283482,0.18899 -0.06957,0.0557 -0.112594,0.14315 -0.188988,0.18899 -0.08541,0.0512 -0.198071,0.0433 -0.283482,0.0945 -0.07639,0.0458 -0.116493,0.13721 -0.188988,0.18899 -0.04053,0.029 -0.101215,0.0183 -0.141741,0.0473 -0.07249,0.0518 -0.121346,0.13101 -0.188988,0.18899 -0.04311,0.0369 -0.09812,0.0581 -0.141741,0.0945 -0.05133,0.0428 -0.08737,0.10291 -0.141741,0.14174 -0.05731,0.0409 -0.134881,0.0494 -0.188988,0.0945 -0.0041,0.003 -0.180208,0.27294 -0.188988,0.28348 -0.04278,0.0513 -0.09735,0.0918 -0.141742,0.14174 -0.03976,0.0447 -0.320483,0.37665 -0.377976,0.47247 -0.05435,0.0906 -0.07155,0.20452 -0.141741,0.28348 -0.06101,0.0686 -0.16277,0.0866 -0.236235,0.14174 -0.05345,0.0401 -0.09679,0.0923 -0.141741,0.14174 -0.112615,0.12388 -0.218114,0.2541 -0.330729,0.37798 -0.04495,0.0494 -0.09826,0.091 -0.141741,0.14174 -0.05125,0.0598 -0.08606,0.13331 -0.141741,0.18899 -0.04015,0.0401 -0.0974,0.059 -0.141741,0.0945 -0.0041,0.003 -0.176701,0.16442 -0.188988,0.18899 -0.007,0.0141 0.007,0.0332 0,0.0472 -0.03012,0.0602 -0.06438,0.0343 -0.09449,0.0945 -0.007,0.0141 0.0087,0.0342 0,0.0473 -0.02471,0.0371 -0.07695,0.0535 -0.09449,0.0945 -0.03163,0.0738 -0.02777,0.15833 -0.04725,0.23624 -0.03608,0.14433 -0.100862,0.28214 -0.141742,0.42522 -0.01784,0.0624 -0.02671,0.12739 -0.04725,0.18899 -0.02227,0.0668 -0.08068,0.11992 -0.09449,0.18899 -0.0093,0.0463 0.02113,0.0995 0,0.14174 -0.01575,0.0315 -0.06959,0.0224 -0.09449,0.0473 -0.003,0.003 -0.08863,0.18018 -0.09449,0.18898 -0.01235,0.0186 -0.03489,0.0287 -0.04725,0.0473 -0.01953,0.0293 -0.02771,0.0652 -0.04725,0.0945 -0.01575,0.0157 -0.0315,0.0315 -0.04725,0.0472 -0.01575,0 -0.03611,-0.0111 -0.04725,0 -0.01649,0.0165 0.01961,0.13194 0,0.14174 -0.02817,0.0141 -0.06461,-0.01 -0.09449,0 -0.02113,0.007 -0.02872,0.0349 -0.04725,0.0473 -0.0293,0.0195 -0.06152,0.0349 -0.09449,0.0472 -0.49957,0.18734 -0.06575,0.003 -0.661458,0.18898 -0.128435,0.0401 -0.248594,0.10478 -0.377976,0.14175 -1.050976,0.30028 0.75623,-0.32087 -0.708706,0.14174 -0.161749,0.0511 -0.310833,0.13756 -0.47247,0.18899 -0.185634,0.0591 -0.378574,0.0922 -0.566964,0.14174 -0.90983,0.23943 0.337763,-0.0634 -0.755953,0.18899 -0.06327,0.0146 -0.125992,0.0315 -0.188988,0.0472 -0.07874,0.0157 -0.157843,0.0298 -0.236235,0.0472 -0.06339,0.0141 -0.12445,0.0401 -0.188988,0.0473 -0.07826,0.009 -0.15749,0 -0.236235,0 -0.063,0 -0.125992,0 -0.188988,0 -0.251984,0 -0.503968,0 -0.755953,0 -0.110243,0 -0.220486,0 -0.330729,0 -0.0315,0 -0.06461,-0.01 -0.09449,0 -0.03341,0.0111 -0.06212,0.0334 -0.09449,0.0472 -0.460433,0.19733 -0.05086,-0.007 -0.377976,0.18899 -0.06039,0.0362 -0.130385,0.0554 -0.188988,0.0945 -0.01853,0.0124 -0.02733,0.0373 -0.04725,0.0473 -0.01409,0.007 -0.03611,-0.0111 -0.04725,0 -0.05755,0.0575 -0.02213,0.10556 -0.09449,0.14174 -0.03094,0.0155 -0.194307,-0.014 -0.236235,0 -0.328416,0.10948 0.36708,0.002 -0.425224,0.14174 -0.338774,0.0598 -0.520416,0.0473 -0.850446,0.0473 -0.188988,0 -0.377976,0 -0.566964,0 -0.188988,0 -0.377976,0 -0.566965,0 -0.02524,0 -0.222712,0.007 -0.236235,0 -0.107524,-0.0538 -0.115027,-0.28552 -0.188988,-0.37798 -0.04174,-0.0522 -0.10859,-0.0837 -0.141741,-0.14174 -0.131979,-0.23096 0.02311,-0.12667 -0.09449,-0.28348 -0.02673,-0.0356 -0.06978,-0.0574 -0.09449,-0.0945 -0.03907,-0.0586 -0.05955,-0.12784 -0.09449,-0.18899 -0.06693,-0.11713 -0.151742,-0.19416 -0.188988,-0.33073 -0.029301,-0.10744 -0.025408,-0.22153 -0.047247,-0.33073 -0.00977,-0.0488 -0.036443,-0.0931 -0.047247,-0.14174 -0.02078,-0.0935 -0.02846,-0.18954 -0.047247,-0.28348 -0.012734,-0.0637 -0.034512,-0.12532 -0.047247,-0.18899 -0.00791,-0.0396 -0.057913,-0.39931 -0.094494,-0.47247 -0.01992,-0.0398 -0.074573,-0.0546 -0.094494,-0.0945 -0.02904,-0.0581 -0.029408,-0.12655 -0.047247,-0.18898 -0.013682,-0.0479 -0.028751,-0.0955 -0.047247,-0.14174 -0.060243,-0.15061 -0.1048687,-0.0991 -0.1417413,-0.28349 -0.00618,-0.0309 0.00618,-0.0636 0,-0.0945 -0.019534,-0.0977 -0.080408,-0.18488 -0.094494,-0.28348 -0.017817,-0.12473 0.027331,-0.25499 0,-0.37798 -0.018399,-0.0828 -0.076096,-0.15344 -0.094494,-0.23623 -0.013666,-0.0615 0,-0.126 0,-0.18899 0,-0.22049 0,-0.44097 0,-0.66146 0,-0.18899 0,-0.37798 0,-0.56696 0,-0.0945 -0.011721,-0.18972 0,-0.28349 0.00805,-0.0644 0.034512,-0.12531 0.047247,-0.18898 0.018788,-0.0939 0.03011,-0.18923 0.047247,-0.28349 0.014364,-0.079 0.040578,-0.1562 0.047247,-0.23623 0.00915,-0.10986 -0.00998,-0.22094 0,-0.33073 0.00588,-0.0647 0.033161,-0.1256 0.047247,-0.18899 0.01742,-0.0784 0.037287,-0.15655 0.047247,-0.23623 0.00977,-0.0781 -0.012946,-0.15857 0,-0.23624 0.022691,-0.13614 0.089249,-0.34124 0.141741,-0.47247 0.013078,-0.0327 0.034168,-0.0618 0.047247,-0.0945 0.068993,-0.17249 0.1114724,-0.34919 0.1889879,-0.51972 0.043717,-0.0962 0.1083323,-0.18326 0.1417412,-0.28348 0.045916,-0.13775 0.041867,-0.2899 0.094494,-0.42523 0.05877,-0.15112 0.155788,-0.28444 0.236235,-0.42522 0.04556,-0.0797 0.108775,-0.15052 0.141741,-0.23623 0.04662,-0.12122 0.0563,-0.25385 0.09449,-0.37798 0.02494,-0.0811 0.07218,-0.15441 0.09449,-0.23624 0.02521,-0.0924 0.01972,-0.19172 0.04725,-0.28348 0.02024,-0.0675 0.06535,-0.12487 0.09449,-0.18899 0.04963,-0.10919 0.100752,-0.218 0.141741,-0.33072 0.05582,-0.15351 0.06968,-0.37084 0.09449,-0.51972 0.0132,-0.0792 0.03404,-0.15703 0.04725,-0.23624 0.106179,-0.63707 -0.0101,-0.0389 0.09449,-0.61421 0.01436,-0.079 0.01905,-0.16104 0.04725,-0.23623 0.01994,-0.0532 0.0691,-0.091 0.09449,-0.14174 0.0455,-0.091 0.06422,-0.23991 0.09449,-0.33073 0.01114,-0.0334 0.0315,-0.063 0.04725,-0.0945 0.01575,-0.0472 0.03356,-0.0939 0.04725,-0.14174 0.0448,-0.1568 0.03785,-0.18913 0.09449,-0.33073 0.01308,-0.0327 0.03611,-0.0611 0.04725,-0.0945 0.02053,-0.0616 0.02167,-0.12931 0.04725,-0.18899 0.02237,-0.0522 0.07654,-0.0879 0.09449,-0.14174 0.01494,-0.0448 0,-0.0945 0,-0.14174 0,-0.18899 0,-0.37798 0,-0.56697 0,-0.14174 0,-0.28348 0,-0.42522 0,-0.0157 0,-0.0315 0,-0.0472 0,-0.0157 0.007,-0.0332 0,-0.0472 -0.02325,-0.0465 -0.165742,-0.1425 -0.188988,-0.18899 -0.007,-0.0141 0.007,-0.0332 0,-0.0473 -0.01992,-0.0398 -0.08041,-0.0522 -0.09449,-0.0945 -0.01655,-0.0497 0.01211,-0.23504 0,-0.28349 -0.0054,-0.0216 -0.03729,-0.0273 -0.04725,-0.0472 -0.007,-0.0141 0,-0.0315 0,-0.0473 0,-0.0594 -0.01551,-0.19746 0,-0.23623 0.01654,-0.0414 0.06667,-0.0597 0.09449,-0.0945 0.03547,-0.0443 0.05814,-0.0981 0.09449,-0.14174 0.0992,-0.11904 0.328834,-0.30086 0.425223,-0.37798 0.06149,-0.0492 0.12097,-0.10206 0.188988,-0.14174 0.121675,-0.071 0.260771,-0.11085 0.377976,-0.18898 0.07413,-0.0494 0.119421,-0.13334 0.188988,-0.18899 0.981263,-0.78501 -0.214497,0.20721 0.472471,-0.28348 0.05437,-0.0388 0.08737,-0.10291 0.141741,-0.14175 0.05731,-0.0409 0.125992,-0.063 0.188988,-0.0945 0.443211,-0.22161 -0.111362,0.0445 0.47247,-0.18899 0.6739,-0.26956 -0.373391,0.12636 0.377976,-0.28348 0.100655,-0.0549 0.219946,-0.065 0.330729,-0.0945 0.125485,-0.0335 0.251433,-0.0653 0.377977,-0.0945 0.07825,-0.0181 0.15876,-0.0261 0.236235,-0.0473 0.519717,-0.14174 0.09449,-0.0472 0.425223,-0.14174 0.06244,-0.0178 0.126792,-0.0286 0.188988,-0.0472 0.232375,-0.0697 0.464312,-0.16455 0.708705,-0.18899 0.07835,-0.008 0.15749,0 0.236235,0 0.110244,0 0.220486,0 0.33073,0 0.220486,0 0.440972,0 0.661458,0 0.09449,0 0.188988,0 0.283482,0 0.04725,0 0.09497,-0.007 0.141741,0 0.06428,0.009 0.124937,0.0366 0.188988,0.0473 0.03107,0.005 0.06829,-0.0175 0.09449,0 0.0293,0.0195 0.02235,0.0696 0.04725,0.0945 0.0249,0.0249 0.063,0.0315 0.09449,0.0473 0.0315,0.0157 0.06033,0.0387 0.09449,0.0472 0.03056,0.008 0.06361,-0.006 0.09449,0 0.09767,0.0195 0.187709,0.0671 0.283483,0.0945 0.415281,0.11865 -0.0091,-0.0188 0.330729,0.0945 0.04725,0.0157 0.09821,0.0231 0.141741,0.0473 0.285237,0.15846 0.217159,0.18136 0.47247,0.28348 0.09248,0.037 0.191001,0.0575 0.283482,0.0945 0.06539,0.0262 0.123594,0.0683 0.188988,0.0945 0.09248,0.037 0.198071,0.0433 0.283482,0.0945 0.07639,0.0458 0.110777,0.14633 0.188988,0.18899 0.100655,0.0549 0.222978,0.0553 0.33073,0.0945 0.06619,0.0241 0.125992,0.063 0.188988,0.0945 0.125992,0.063 0.256301,0.11801 0.377976,0.18899 0.06802,0.0397 0.122212,0.1 0.188988,0.14174 0.05973,0.0373 0.125992,0.063 0.188988,0.0945 0.063,0.0315 0.124627,0.0659 0.188988,0.0945 0.0775,0.0344 0.162097,0.0533 0.236235,0.0945 0.06884,0.0382 0.124911,0.096 0.188988,0.14174 0.04621,0.033 0.0974,0.059 0.141742,0.0945 0.03478,0.0278 0.05743,0.0698 0.09449,0.0945 0.231059,0.15404 0.137415,0.0279 0.33073,0.18899 0.05133,0.0428 0.08737,0.1029 0.141741,0.14174 0.0015,10e-4 0.373483,0.18642 0.377976,0.18899 0.0493,0.0282 0.09449,0.063 0.141741,0.0945 0.07874,0.0315 0.160378,0.0566 0.236235,0.0945 0.356423,0.17822 0.115618,0.0863 0.377976,0.23624 0.06115,0.0349 0.130386,0.0554 0.188988,0.0945 0.03706,0.0247 0.063,0.063 0.09449,0.0945 0.04725,0.0473 0.09041,0.099 0.141741,0.14174 0.04362,0.0363 0.09449,0.063 0.141741,0.0945 0.04725,0.0315 0.09305,0.0653 0.141741,0.0945 0.0302,0.0181 0.06959,0.0223 0.09449,0.0472 0.0249,0.0249 0.02525,0.067 0.04725,0.0945 0.04174,0.0522 0.09896,0.0904 0.141741,0.14174 0.03635,0.0436 0.05814,0.0981 0.09449,0.14174 0.04278,0.0513 0.09449,0.0945 0.141741,0.14174 0.04725,0.0473 0.08737,0.10291 0.141741,0.14174 0.05731,0.0409 0.131676,0.0536 0.188988,0.0945 0.05437,0.0388 0.09101,0.0983 0.14174,0.14174 0.110786,0.095 0.298339,0.22004 0.425225,0.28348 0.07586,0.0379 0.160377,0.0566 0.236233,0.0945 0.05079,0.0254 0.0945,0.063 0.141743,0.0945 0.334039,0.22269 -0.0795,-0.0568 0.330729,0.23623 0.04621,0.033 0.09305,0.0653 0.14174,0.0945 0.0302,0.0181 0.06959,0.0223 0.0945,0.0472 0.0249,0.0249 0.01908,0.0734 0.04725,0.0945 0.130426,0.0978 0.121033,-0.007 0.188986,0.0945 0.159123,0.23869 2.65e-4,0.001 0.04725,0.14174 0.01114,0.0334 0.0315,0.063 0.04725,0.0945 0.04725,0.0945 0.09449,0.18899 0.14174,0.28348 0.01574,0.0315 0.02611,0.0663 0.04725,0.0945 0.02673,0.0356 0.06979,0.0574 0.09449,0.0945 0.0087,0.0131 0,0.0315 0,0.0472 0,0.0473 -0.01146,0.0959 0,0.14175 0.0054,0.0216 0.04021,0.0261 0.04725,0.0472 0.01495,0.0448 0,0.0945 0,0.14174 0,0.126 0,0.25199 0,0.37798 0,0.17324 0,0.34648 0,0.51972 0,0.0472 0,0.0945 0,0.14174 0,0.0473 0.0078,0.0951 0,0.14174 -0.0082,0.0491 -0.03906,0.0926 -0.04725,0.14174 -0.0078,0.0466 0.01495,0.0969 0,0.14174 -0.01796,0.0539 -0.0734,0.089 -0.09449,0.14174 -0.01169,0.0293 0.0052,0.0634 0,0.0945 -0.01066,0.0641 -0.02671,0.12738 -0.04725,0.18898 -0.03294,0.0988 -0.103023,0.18669 -0.14174,0.28349 -0.01849,0.0462 -0.02498,0.0972 -0.04725,0.14174 -0.0099,0.0199 -0.03489,0.0287 -0.04725,0.0472 -0.01953,0.0293 -0.0315,0.063 -0.04725,0.0945 -0.06233,0.12466 -0.03216,0.0643 -0.09449,0.18899 -0.01574,0.0315 -0.0315,0.063 -0.04725,0.0945 -0.01574,0.0315 -0.03871,0.0603 -0.04725,0.0945 -0.0076,0.0306 0.0099,0.0646 0,0.0945 -0.007,0.0211 -0.03489,0.0287 -0.04725,0.0473 -0.036,0.054 -0.08352,0.18135 -0.09449,0.23623 -0.0254,0.12701 0.04249,0.0694 -0.04725,0.18899 -0.02673,0.0356 -0.07157,0.0563 -0.09449,0.0945 -0.02564,0.0427 -0.0315,0.0945 -0.04725,0.14174 -0.0315,0.0945 -0.063,0.18899 -0.0945,0.28349 -0.01574,0.0472 -0.02875,0.0955 -0.04725,0.14174 -0.02617,0.0654 -0.07741,0.12066 -0.09449,0.18899 -0.03493,0.1397 0.05314,0.0551 -0.04725,0.18898 -0.02673,0.0356 -0.063,0.063 -0.0945,0.0945 -0.01574,0.0158 -0.02732,0.0373 -0.04725,0.0472 -0.01408,0.007 -0.03611,-0.0111 -0.04725,0 -0.01114,0.0111 0,0.0315 0,0.0473 0,0.0158 0,0.0315 0,0.0473 0,0.0115 0.0016,0.14022 0,0.14174 -0.01114,0.0111 -0.03611,-0.0111 -0.04725,0 -0.02228,0.0223 0.02228,0.0722 0,0.0945 -0.01114,0.0111 -0.0315,0 -0.04725,0 -0.07875,0 -0.157491,0 -0.236236,0 -0.01574,0 -0.03611,0.0111 -0.04725,0 -0.01114,-0.0111 0.01114,-0.0361 0,-0.0472 -0.02228,-0.0223 -0.07222,0.0223 -0.09449,0 -0.0097,-0.01 0.0094,-0.12301 0,-0.14174 -0.0099,-0.0199 -0.03729,-0.0273 -0.04725,-0.0472 -0.01408,-0.0282 0.02228,-0.0722 0,-0.0945 -0.03151,-0.0315 -0.06298,0.0315 -0.0945,0 -0.01114,-0.0111 0.01114,-0.0361 0,-0.0472 -0.02228,-0.0223 -0.07222,0.0223 -0.09449,0 -0.01114,-0.0111 0.01114,-0.0361 0,-0.0473 -0.0015,-0.002 -0.130282,0 -0.141741,0 -0.01146,0 -0.140222,-0.002 -0.141741,0 -0.01114,0.0111 0.007,0.0332 0,0.0473 -0.01992,0.0398 -0.07457,0.0546 -0.09449,0.0945 -0.01485,0.0297 0.01485,0.15929 0,0.18899 -0.01,0.0199 -0.0315,0.0315 -0.04725,0.0473 -0.01575,0.0157 -0.02564,0.0418 -0.04725,0.0472 -0.209742,0.0524 -0.07505,-0.0602 -0.236235,0.0473 -0.01853,0.0123 -0.0402,0.0261 -0.04725,0.0472 -0.01,0.0299 0.01409,0.0663 0,0.0945 -0.0073,0.0146 -0.12484,-0.008 -0.141741,0 -0.01992,0.01 -0.02872,0.0349 -0.04725,0.0473 -0.0293,0.0195 -0.06519,0.0277 -0.09449,0.0473 -0.01853,0.0123 -0.02612,0.0402 -0.04725,0.0472 -0.02988,0.01 -0.06394,-0.008 -0.09449,0 -0.03416,0.009 -0.06519,0.0277 -0.09449,0.0472 -0.01965,0.0131 -0.180539,0.17209 -0.188989,0.18899 -0.03259,0.0652 0.05722,0.0423 -0.04725,0.0945 -0.063,0.0315 -0.04725,-0.0157 -0.04725,-0.0472"
       id="path4497"
       inkscape:connector-curvature="0" />
  </g>
</svg>
