<?xml version="1.0" encoding="UTF-8" standalone="no"?>
<!-- Created with Inkscape (http://www.inkscape.org/) -->

<svg
   xmlns:dc="http://purl.org/dc/elements/1.1/"
   xmlns:cc="http://creativecommons.org/ns#"
   xmlns:rdf="http://www.w3.org/1999/02/22-rdf-syntax-ns#"
   xmlns:svg="http://www.w3.org/2000/svg"
   xmlns="http://www.w3.org/2000/svg"
   xmlns:sodipodi="http://sodipodi.sourceforge.net/DTD/sodipodi-0.dtd"
   xmlns:inkscape="http://www.inkscape.org/namespaces/inkscape"
   width="128"
   height="128"
   viewBox="0 0 33.866666 33.866667"
   version="1.1"
   id="svg6207"
   inkscape:version="0.92.1 r15371"
   sodipodi:docname="press-01.svg"
   inkscape:export-filename="D:\code\old-42-game\android\assets\anim\trap-02\press-01.png"
   inkscape:export-xdpi="192.00002"
   inkscape:export-ydpi="192.00002">
  <defs
     id="defs6201" />
  <sodipodi:namedview
     id="base"
     pagecolor="#ffffff"
     bordercolor="#666666"
     borderopacity="1.0"
     inkscape:pageopacity="0.0"
     inkscape:pageshadow="2"
     inkscape:zoom="5.6"
     inkscape:cx="90.8427"
     inkscape:cy="72.824743"
     inkscape:document-units="mm"
     inkscape:current-layer="layer1"
     showgrid="true"
     units="px"
     inkscape:window-width="1920"
     inkscape:window-height="1001"
     inkscape:window-x="-9"
     inkscape:window-y="-9"
     inkscape:window-maximized="1">
    <inkscape:grid
       type="xygrid"
       id="grid6752" />
  </sodipodi:namedview>
  <metadata
     id="metadata6204">
    <rdf:RDF>
      <cc:Work
         rdf:about="">
        <dc:format>image/svg+xml</dc:format>
        <dc:type
           rdf:resource="http://purl.org/dc/dcmitype/StillImage" />
        <dc:title></dc:title>
      </cc:Work>
    </rdf:RDF>
  </metadata>
  <g
     inkscape:label="Layer 1"
     inkscape:groupmode="layer"
     id="layer1"
     transform="translate(0,-263.13332)">
    <path
       style="fill:#f5eaea;stroke:#000000;stroke-width:0;stroke-linecap:square;stroke-linejoin:round;stroke-opacity:1;fill-opacity:1;stroke-miterlimit:4;stroke-dasharray:none"
       d="m 14.816666,264.72082 2.116667,0.52917 2.116667,-0.26459 0.79375,0.26459 2.38125,-0.52917 -2.645834,1.32292 -1.058333,-0.26459 -1.322917,0.26459 -2.38125,0.26458 z"
       id="path6756"
       inkscape:connector-curvature="0" />
    <path
       style="fill:#f5eaea;stroke:#000000;stroke-width:0;stroke-linecap:square;stroke-linejoin:round;stroke-opacity:1;fill-opacity:1;stroke-miterlimit:4;stroke-dasharray:none"
       d="M 21.43125,269.21874 19.05,268.1604 l -1.322917,0.26459 -1.322917,-0.26459 -1.322916,0.52917 -0.264584,-0.52917 v 1.5875 L 15.875,269.21874 h 0.79375 l 0.79375,0.52916 1.058333,-0.52916 1.852083,0.26458 z"
       id="path6758"
       inkscape:connector-curvature="0" />
    <path
       style="fill:#f5eaea;stroke:#000000;stroke-width:0;stroke-linecap:square;stroke-linejoin:round;stroke-opacity:1;fill-opacity:1;stroke-miterlimit:4;stroke-dasharray:none"
       d="m 14.816666,271.07082 1.322917,0.52917 2.116667,-0.26459 1.5875,0.26459 3.175,-1.5875 -1.5875,1.85208 -1.852084,0.52917 -1.322916,-0.26459 -1.852084,0.52917 -1.5875,0.52917 z"
       id="path6760"
       inkscape:connector-curvature="0" />
    <path
       style="fill:#f5eaea;stroke:#000000;stroke-width:0;stroke-linecap:square;stroke-linejoin:round;stroke-opacity:1;fill-opacity:1;stroke-miterlimit:4;stroke-dasharray:none"
       d="m 14.816666,274.5104 1.852084,0.26459 2.116666,-0.52917 2.116667,0.79375 1.5875,-0.52917 -1.5875,1.5875 -2.116667,-0.52916 -0.529166,0.52916 -1.058334,-0.26458 -1.852083,0.52917 -0.79375,0.52916 z"
       id="path6762"
       inkscape:connector-curvature="0" />
    <path
       style="fill:#f5eaea;stroke:#000000;stroke-width:0;stroke-linecap:square;stroke-linejoin:round;stroke-opacity:1;fill-opacity:1;stroke-miterlimit:4;stroke-dasharray:none"
       d="m 14.816666,277.94999 2.116667,0.52916 1.5875,-0.79375 1.5875,0.52917 2.38125,-0.79375 -1.5875,2.11667 -2.38125,-0.52917 -1.852083,0.79375 -1.852084,0.52917 z"
       id="path6764"
       inkscape:connector-curvature="0" />
    <path
       style="fill:#f5eaea;stroke:#000000;stroke-width:0;stroke-linecap:square;stroke-linejoin:round;stroke-opacity:1;fill-opacity:1;stroke-miterlimit:4;stroke-dasharray:none"
       d="m 14.816666,281.65415 1.852084,0.79375 2.645833,-0.52916 1.852083,0.79375 2.38125,-0.79375 -2.38125,1.85208 -2.116666,-0.52917 -2.116667,0.52917 -2.116667,-0.79375 z"
       id="path6766"
       inkscape:connector-curvature="0" />
    <path
       style="fill:#f5eaea;stroke:#000000;stroke-width:0;stroke-linecap:square;stroke-linejoin:round;stroke-opacity:1;fill-opacity:1;stroke-miterlimit:4;stroke-dasharray:none"
       d="m 14.816666,284.82915 1.5875,0.79375 1.058334,0.26459 1.852083,0.26458 h 3.175 l -2.645833,0.79375 -2.116667,-0.52917 -1.322917,0.52917 -2.116666,0.26458 z"
       id="path6768"
       inkscape:connector-curvature="0"
       sodipodi:nodetypes="cccccccccc" />
    <path
       style="fill:#f5eaea;stroke:#000000;stroke-width:0;stroke-linecap:square;stroke-linejoin:round;stroke-opacity:1;fill-opacity:1;stroke-miterlimit:4;stroke-dasharray:none"
       d="m 14.816666,288.7979 2.910417,0.79375 1.5875,-1.05833 1.058334,0.26458 0.79375,0.52917 h 1.322916 l -1.322916,1.05833 -1.058334,-0.52916 -1.322917,1.05833 -2.116666,-0.52917 -2.116667,1.32292 z"
       id="path6770"
       inkscape:connector-curvature="0"
       sodipodi:nodetypes="cccccccccccc" />
    <path
       style="fill:#f5eaea;stroke:#000000;stroke-width:0;stroke-linecap:square;stroke-linejoin:round;stroke-opacity:1;fill-opacity:1;stroke-miterlimit:4;stroke-dasharray:none"
       d="m 14.552083,292.76665 2.645833,0.52917 2.38125,-0.79375 1.5875,0.52917 1.322917,-0.26459 -1.058333,1.05834 -2.116667,-0.26459 -1.322917,1.05834 -1.058333,0.52916 -0.79375,-0.26458 -0.529167,-0.79375 -0.79375,1.05833 z"
       id="path6772"
       inkscape:connector-curvature="0" />
    <rect
       style="fill:#bebebe;fill-opacity:1;fill-rule:nonzero;stroke:#bebebe;stroke-width:0.8;stroke-linecap:round;stroke-linejoin:bevel;stroke-miterlimit:4;stroke-dasharray:none;stroke-opacity:1"
       id="rect6754"
       width="5.2916675"
       height="31.749992"
       x="9.260417"
       y="263.92706"
       ry="0" />
  </g>
</svg>
