<?xml version="1.0" encoding="UTF-8" standalone="no"?>
<!-- Created with Inkscape (http://www.inkscape.org/) -->

<svg
   xmlns:dc="http://purl.org/dc/elements/1.1/"
   xmlns:cc="http://creativecommons.org/ns#"
   xmlns:rdf="http://www.w3.org/1999/02/22-rdf-syntax-ns#"
   xmlns:svg="http://www.w3.org/2000/svg"
   xmlns="http://www.w3.org/2000/svg"
   xmlns:sodipodi="http://sodipodi.sourceforge.net/DTD/sodipodi-0.dtd"
   xmlns:inkscape="http://www.inkscape.org/namespaces/inkscape"
   width="256"
   height="128"
   viewBox="0 0 67.733332 33.866668"
   version="1.1"
   id="svg8"
   inkscape:version="0.92.1 r15371"
   sodipodi:docname="wall-01.svg"
   inkscape:export-filename="D:\code\old-42-game\android\assets\wall-01.png"
   inkscape:export-xdpi="192.00002"
   inkscape:export-ydpi="192.00002">
  <defs
     id="defs2" />
  <sodipodi:namedview
     id="base"
     pagecolor="#ffffff"
     bordercolor="#666666"
     borderopacity="1.0"
     inkscape:pageopacity="0.0"
     inkscape:pageshadow="2"
     inkscape:zoom="3.959798"
     inkscape:cx="149.90374"
     inkscape:cy="63.82014"
     inkscape:document-units="mm"
     inkscape:current-layer="layer1"
     showgrid="true"
     units="px"
     showguides="true"
     inkscape:guide-bbox="true"
     inkscape:window-width="1920"
     inkscape:window-height="1001"
     inkscape:window-x="-9"
     inkscape:window-y="-9"
     inkscape:window-maximized="1">
    <inkscape:grid
       type="xygrid"
       id="grid4485" />
    <sodipodi:guide
       position="0,0"
       orientation="-0.70710678,0.70710678"
       id="guide4487"
       inkscape:locked="false" />
    <sodipodi:guide
       position="0,33.866667"
       orientation="0.70710678,0.70710678"
       id="guide4491"
       inkscape:locked="false" />
    <sodipodi:guide
       position="16.933333,16.933333"
       orientation="0,1"
       id="guide4493"
       inkscape:locked="false" />
    <sodipodi:guide
       position="12.964583,20.902084"
       orientation="0,1"
       id="guide4495"
       inkscape:locked="false" />
    <sodipodi:guide
       position="12.964583,20.108334"
       orientation="1,0"
       id="guide4497"
       inkscape:locked="false" />
    <sodipodi:guide
       position="12.964583,12.964583"
       orientation="0,1"
       id="guide4499"
       inkscape:locked="false" />
    <sodipodi:guide
       position="66.145832,31.750001"
       orientation="1,0"
       id="guide5620"
       inkscape:locked="false" />
    <sodipodi:guide
       position="1.3229166,33.072918"
       orientation="1,0"
       id="guide5622"
       inkscape:locked="false" />
  </sodipodi:namedview>
  <metadata
     id="metadata5">
    <rdf:RDF>
      <cc:Work
         rdf:about="">
        <dc:format>image/svg+xml</dc:format>
        <dc:type
           rdf:resource="http://purl.org/dc/dcmitype/StillImage" />
        <dc:title></dc:title>
      </cc:Work>
    </rdf:RDF>
  </metadata>
  <g
     inkscape:label="Layer 1"
     inkscape:groupmode="layer"
     id="layer1"
     transform="translate(0,-263.13332)">
    <path
       style="fill:#bebebe;stroke:#bebebe;stroke-width:0.26458332px;stroke-linecap:butt;stroke-linejoin:miter;stroke-opacity:1;fill-opacity:1"
       d="m 1.5875,277.42082 0.2645833,-1.32292 1.5875,0.26459 3.9687499,-0.26459 3.9687498,0.79375 1.058334,-0.79375 0.264583,5.55625 0.529167,-5.02708 1.587499,-0.52917 3.439584,0.52917 3.96875,-0.26458 1.852083,1.05833 2.38125,-1.05833 5.291667,0.52916 1.322916,-0.79375 1.058334,0.52917 1.5875,-0.26458 5.027083,0.52916 2.38125,-0.79375 6.085416,0.52917 1.852084,-0.26458 0.264583,0.52916 2.910417,-1.05833 3.175,0.79375 3.704166,-0.79375 0.529167,1.05833 h 1.058333 l -0.529166,2.91042 -1.322917,0.26458 -1.322917,-1.32291 -0.529166,-0.26459 0.529166,0.79375 0.264584,1.05834 1.852083,1.32291 1.322917,-1.5875 0.529166,-3.175 -0.264583,-0.79375 1.322917,-0.52916 1.587497,0.52916 0.264586,0.79375 -1.322917,2.91042 1.322917,0.79375 v 2.11667 l -1.322917,0.52916 -1.852083,0.79375 -2.116667,-0.79375 -2.116666,0.52917 -2.38125,-0.79375 -3.439584,1.05833 -0.79375,-0.79375 v 0.79375 l -2.116666,-0.79375 -0.264584,0.26459 -1.852083,0.26458 h -4.233333 l -0.529167,-0.79375 -0.264583,-1.85208 0.264583,-1.85209 -0.79375,-1.85208 h -1.322917 l 1.058334,0.79375 0.264583,1.32292 -0.264583,1.05833 0.529166,1.5875 -0.529166,1.05833 -2.116667,0.26459 -2.910416,-0.52917 -3.175,0.52917 -0.79375,-0.52917 -0.79375,0.52917 -1.322917,-0.52917 -1.5875,0.26458 -1.5875,-0.26458 -4.233333,0.52917 -7.14375,-0.52917 -1.058334,0.79375 -2.116666,-0.26458 -1.322917,-1.85209 0.264584,1.5875 -0.79375,0.79375 -2.3812504,-0.52916 -2.1166667,0.52916 -2.38125,-0.79375 -1.3229166,0.52917 -0.79375,0.52917 H 0.79374999 l -0.26458333,-1.32292 0.79374994,-1.05833 0.79375,-0.79375 -0.79375,-2.11667 0.79375,-1.05833 z"
       id="path5624"
       inkscape:connector-curvature="0" />
  </g>
</svg>
